<svg width="674" height="151" viewBox="0 0 674 151" fill="none" xmlns="http://www.w3.org/2000/svg">
<rect width="674" height="151" fill="#333333"/>
<path d="M148.7 3.30005H3.29999V148.7H148.7V3.30005Z" fill="#F7E016"/>
<path d="M148.7 3.30005H3.29999V148.7H148.7V3.30005Z" stroke="#F7E016" stroke-width="0.454" stroke-miterlimit="3.864"/>
<path d="M148.6 31.2C148.6 31.2 116.8 37.7 113.7 38.2C101.1 40.2 88.1 38.2 77.2 33.5C69.9 29.6 62.4 26.2 54.2 25.1C48.9 24.3 43.2 24.3 37.9 25L14.6 29.2C10.9 29.9 6.99999 30.6 3.29999 31.2V4.80004C8.99999 3.40004 15.4 2.50004 21.3 4.40004C24.7 5.20004 27.7 7.20004 30.9 8.70004C37.3 12.1 43.5 16.2 50.7 17.8C60.3 20.5 71.6 19.9 81.2 17.6L103 13.6L125.8 9.50004L148.7 4.80004V31.2" fill="#E4312A"/>
<path d="M148.6 31.2C148.6 31.2 116.8 37.7 113.7 38.2C101.1 40.2 88.1 38.2 77.2 33.5C69.9 29.6 62.4 26.2 54.2 25.1C48.9 24.3 43.2 24.3 37.9 25L14.6 29.2C10.9 29.9 6.99999 30.6 3.29999 31.2V4.80004C8.99999 3.40004 15.4 2.50004 21.3 4.40004C24.7 5.20004 27.7 7.20004 30.9 8.70004C37.3 12.1 43.5 16.2 50.7 17.8C60.3 20.5 71.6 19.9 81.2 17.6L103 13.6L125.8 9.50004L148.7 4.80004V31.2H148.6Z" stroke="#E4312A" stroke-width="0.454" stroke-miterlimit="3.864"/>
<path fill-rule="evenodd" clip-rule="evenodd" d="M33.7 115.2C48.3 111.6 65 113.6 77.8 119.9C88.8 126.5 102.7 129.3 116.1 126.8L148.6 120.9V147.2C144 148.2 139.6 149.1 134.7 148.4C132.1 148 129.7 147.3 127.3 146.3L110.4 137.5C100.7 133.2 88.8 131.6 77.7 133.7L7.99999 146.5L3.29999 147.3V121L9.09999 119.8L24.4 117C27.4 116.3 30.7 115.8 33.7 115.2Z" fill="#E4312A"/>
<path d="M33.7 115.2C48.3 111.6 65 113.6 77.8 119.9C88.8 126.5 102.7 129.3 116.1 126.8L148.6 120.9V147.2C144 148.2 139.6 149.1 134.7 148.4C132.1 148 129.7 147.3 127.3 146.3L110.4 137.5C100.7 133.2 88.8 131.6 77.7 133.7L7.99999 146.5L3.29999 147.3V121L9.09999 119.8L24.4 117C27.4 116.3 30.7 115.8 33.7 115.2Z" stroke="#E4312A" stroke-width="0.454" stroke-miterlimit="3.864"/>
<path d="M3.29999 72.9V52.6L63.4 41.6C78.4 39.7 93 42.6 105.4 49.2C116.7 55.1 131.4 56.6 144.5 53.5L148.7 52.6V72.9L135.4 65.3C126 60.9 114.9 59.1 103.9 60.6L67 67.3C62.6 68.1 53.7 69.7 53.7 69.7L20 76C13.1 77.1 8.09999 75.7 3.29999 72.9Z" fill="#E4312A"/>
<path d="M3.29999 72.9V52.6L63.4 41.6C78.4 39.7 93 42.6 105.4 49.2C116.7 55.1 131.4 56.6 144.5 53.5L148.7 52.6V72.9L135.4 65.3C126 60.9 114.9 59.1 103.9 60.6L67 67.3C62.6 68.1 53.7 69.7 53.7 69.7L20 76C13.1 77.1 8.09999 75.7 3.29999 72.9Z" stroke="#E4312A" stroke-width="0.454" stroke-miterlimit="3.864"/>
<path d="M148.6 79.9V99.9L89 110.9C74 112.8 59.4 109.9 47 103.3C35.7 97.4 21 95.9 7.90001 99L3.20001 99.9V79.9L17 87.2C26.4 91.6 37.5 93.4 48.5 91.9L85.4 85.2C89.8 84.4 98.7 82.8 98.7 82.8L132.3 76.6C139 75.4 144 77.3 148.6 79.9Z" fill="#E4312A"/>
<path d="M148.6 79.9V99.9L89 110.9C74 112.8 59.4 109.9 47 103.3C35.7 97.4 21 95.9 7.90001 99L3.20001 99.9V79.9L17 87.2C26.4 91.6 37.5 93.4 48.5 91.9L85.4 85.2C89.8 84.4 98.7 82.8 98.7 82.8L132.3 76.6C139 75.4 144 77.3 148.6 79.9Z" stroke="#E4312A" stroke-width="0.454" stroke-miterlimit="3.864"/>
<path fill-rule="evenodd" clip-rule="evenodd" d="M178.2 135.3V95.6H184.7C198.1 95.6 205.5 102.7 205.5 115.5C205.5 128.6 198.4 135.3 184.6 135.3H178.2ZM163.2 82.4V148.7H185.4C207.9 148.7 221.1 136.4 221.1 115.5C221.1 94.7 207.6 82.4 184.6 82.4H163.2Z" fill="white"/>
<path d="M226.4 82.4V148.7H270.4V135.3H241.3V120.2H270.1V106.7H241.3V95.7H270.4V82.4H226.4Z" fill="white"/>
<path fill-rule="evenodd" clip-rule="evenodd" d="M342.4 115.7H330L331.6 111.1C332.9 107.2 333.4 105.9 333.8 104.3C334 103.7 334.4 102.5 334.9 100.7L335.6 98.2C335.7 97.9 335.9 97.2 336.2 96C336.9 98.8 337.4 100.8 338.5 104.1L339.7 107.8C340.4 109.8 340.7 110.9 340.8 111.1L342.4 115.7ZM327.4 82.4L303.2 148.7H318.9L326.1 128.5H346.4L353.5 148.7H369.5L344.8 82.4H327.4V82.4Z" fill="white"/>
<path fill-rule="evenodd" clip-rule="evenodd" d="M387.2 108.9V95H394C400.5 95 403.3 97.1 403.3 101.9C403.3 106.7 400.1 109 393.8 109H387.2V108.9ZM372 148.7H387.2V121.5H389.1C398.6 121.5 399.6 122.5 406 138.9C406.7 140.7 407.1 141.8 407.4 142.3L408.7 145.4C409.6 147.5 409.7 147.7 410.3 148.8H428.5C424.8 144.7 421.7 139.2 415.9 125.6C413.3 119.9 411.8 118.2 407.1 116.3C414.9 113.9 419.2 108.2 419.2 100.4C419.2 88.5 411.3 82.5 395.5 82.5H372V148.7Z" fill="white"/>
<path fill-rule="evenodd" clip-rule="evenodd" d="M455.3 115.7H442.9L444.5 111.1C445.8 107.2 446.3 105.9 446.7 104.3C446.9 103.7 447.3 102.5 447.8 100.7L448.5 98.2C448.6 97.9 448.8 97.2 449.1 96C449.8 98.8 450.3 100.8 451.4 104.1L452.6 107.8C453.3 109.8 453.6 110.9 453.7 111.1L455.3 115.7ZM440.2 82.4L416 148.7H431.7L438.9 128.5H459.2L466.3 148.7H482.3L457.6 82.4H440.2V82.4Z" fill="white"/>
<path d="M532.6 114.8H517.8V135.7C514.9 136.5 513.7 136.6 511.4 136.6C500.1 136.6 491.7 127.8 491.7 115.7C491.7 102.8 500.5 94.1 513.7 94.1C520.3 94.1 525.7 95.8 532.6 99.9V84.8C524.7 81.9 519.2 80.8 512.4 80.8C490.9 80.8 476 95.2 476 115.9C476 136.3 490.6 150.1 512.4 150.1C519.2 150.1 526.3 148.9 532.6 146.6V114.8Z" fill="white"/>
<path fill-rule="evenodd" clip-rule="evenodd" d="M591.6 115.6C591.6 128.1 584.2 136.5 573.1 136.5C561.9 136.5 554.2 128.1 554.2 115.6C554.2 103.2 561.7 94.7 572.8 94.7C584.1 94.7 591.6 103.1 591.6 115.6ZM607.4 115.4C607.4 95.5999 592.7 81.2 572.6 81.2C553 81.2 538.5 95.8 538.5 115.6C538.5 135.5 553 149.9 573.1 149.9C593.2 149.9 607.4 135.6 607.4 115.4Z" fill="white"/>
<path d="M613.1 82.4V148.7H628.2V121.7V118.2L628.1 114.7L628 110.9C628 110.4 628 109.4 627.8 107.7L627.7 105.2C628.2 106.2 628.5 106.9 628.8 107.4C628.9 107.5 629.5 108.5 630.6 110.5L633.3 115.1C633.4 115.3 634.4 116.8 636.2 119.6L638.8 123.8L655 148.8H669V82.5H653.9V107.1C653.9 113.3 654.1 118 654.4 122C654.4 122.5 654.5 123.3 654.6 124.4C652.6 120.2 649.9 115.8 646.2 110.1L628.2 82.6H613.1" fill="white"/>
<path d="M218.7 35.6H203.9V56.5C201 57.3 199.8 57.4 197.5 57.4C186.2 57.4 177.8 48.6 177.8 36.5C177.8 23.6 186.6 14.9 199.8 14.9C206.4 14.9 211.8 16.6 218.7 20.7V5.59997C210.8 2.69997 205.3 1.59998 198.5 1.59998C177 1.59998 162.1 16 162.1 36.7C162.1 57.1 176.7 70.9 198.5 70.9C205.3 70.9 212.4 69.7 218.7 67.4V35.6Z" fill="white"/>
<path fill-rule="evenodd" clip-rule="evenodd" d="M277.6 36.4C277.6 48.9 270.2 57.3 259.1 57.3C247.9 57.3 240.2 48.8 240.2 36.4C240.2 24 247.7 15.5 258.8 15.5C270.1 15.5 277.6 23.9 277.6 36.4ZM293.4 36.2C293.4 16.4 278.7 2 258.6 2C239 2 224.5 16.6 224.5 36.4C224.5 56.3 239 70.7 259.1 70.7C279.2 70.7 293.4 56.4 293.4 36.2Z" fill="white"/>
<path fill-rule="evenodd" clip-rule="evenodd" d="M313.5 56V40.5999H321.9C329.8 40.5999 333 42.8 333 48.4C333 53.8 329.8 56.0999 322.5 56.0999H313.5V56ZM313.5 28V15.7999H320C327.1 15.7999 329.5 17.4 329.5 21.7C329.5 26.2 326.9 28 320.5 28H313.5V28ZM298.4 3.19995V69.5H325.8C340.4 69.5 349 62.2 349 49.8C349 41.3 344.1 35.1 335.2 32.5C341.3 29.5 344.2 24.8 344.2 18.9C344.3 8.39995 337.1 3.19995 322.8 3.19995H298.4Z" fill="white"/>
<path d="M366.9 3.19995H352.1V69.5H366.9V3.19995Z" fill="white"/>
<path d="M373.4 3.19995V69.5H417.3V56.0999H388.2V41H417V27.5999H388.2V16.5H417.3V3.19995H373.4Z" fill="white"/>
<path fill-rule="evenodd" clip-rule="evenodd" d="M439 29.8V15.8H445.8C452.3 15.8 455.1 17.9001 455.1 22.7001C455.1 27.5001 451.9 29.8 445.6 29.8H439ZM423.7 69.5H439V42.3001H440.9C450.4 42.3001 451.4 43.3 457.8 59.7C458.5 61.5 458.9 62.6 459.2 63.1L460.5 66.2C461.4 68.3 461.5 68.5001 462.1 69.6001H480.3C476.6 65.5001 473.5 60.0001 467.7 46.4001C465.1 40.7001 463.6 39 458.9 37.1C466.7 34.7 471 29.0001 471 21.2001C471 9.30005 463.1 3.30005 447.3 3.30005H423.8V69.5H423.7Z" fill="white"/>
<path d="M476.8 3.19995V69.5H491.9V42.5V39L491.8 35.5L491.7 31.7C491.7 31.2 491.7 30.2 491.5 28.5L491.4 26C491.9 27 492.2 27.7 492.5 28.2C492.6 28.3 493.2 29.2999 494.3 31.2999L497 35.9C497.1 36.1 498.1 37.6 499.9 40.4L502.5 44.5999L518.7 69.5999H532.7V3.19995H517.6V27.7999C517.6 33.9999 517.8 38.6999 518.1 42.6999C518.1 43.1999 518.2 43.9999 518.3 45.0999C516.3 40.8999 513.6 36.4999 509.9 30.7999L491.9 3.29995H476.8" fill="white"/>
<path fill-rule="evenodd" clip-rule="evenodd" d="M591.7 36.4C591.7 48.9 584.3 57.3 573.2 57.3C562 57.3 554.3 48.8 554.3 36.4C554.3 24 561.8 15.5 572.9 15.5C584.2 15.5 591.7 23.9 591.7 36.4ZM607.5 36.2C607.5 16.4 592.8 2 572.7 2C553.1 2 538.6 16.6 538.6 36.4C538.6 56.3 553.1 70.7 573.2 70.7C593.3 70.7 607.5 56.4 607.5 36.2Z" fill="white"/>
<rect x="6" y="6" width="140" height="140" stroke="white" stroke-width="6"/>
</svg>
